<svg xmlns="http://www.w3.org/2000/svg" version="1.1" xmlns:xlink="http://www.w3.org/1999/xlink" xmlns:svgjs="http://svgjs.dev/svgjs" viewBox="0 0 800 800"><defs><linearGradient x1="50%" y1="0%" x2="50%" y2="100%" id="cccoil-grad"><stop stop-color="hsl(206, 75%, 49%)" stop-opacity="1" offset="0%"></stop><stop stop-color="hsl(331, 90%, 56%)" stop-opacity="1" offset="100%"></stop></linearGradient></defs><g stroke="url(#cccoil-grad)" fill="none" stroke-linecap="round"><circle r="144.5" cx="400" cy="400" stroke-width="20" stroke-dasharray="772 908" transform="rotate(360, 400, 400)" opacity="0.05"></circle><circle r="136" cx="400" cy="400" stroke-width="20" stroke-dasharray="681 855" transform="rotate(338, 400, 400)" opacity="0.11"></circle><circle r="127.5" cx="400" cy="400" stroke-width="20" stroke-dasharray="596 801" transform="rotate(315, 400, 400)" opacity="0.17"></circle><circle r="119" cx="400" cy="400" stroke-width="20" stroke-dasharray="516 748" transform="rotate(293, 400, 400)" opacity="0.23"></circle><circle r="110.5" cx="400" cy="400" stroke-width="20" stroke-dasharray="443 694" transform="rotate(270, 400, 400)" opacity="0.29"></circle><circle r="102" cx="400" cy="400" stroke-width="20" stroke-dasharray="375 641" transform="rotate(248, 400, 400)" opacity="0.35"></circle><circle r="93.5" cx="400" cy="400" stroke-width="20" stroke-dasharray="312 587" transform="rotate(225, 400, 400)" opacity="0.41"></circle><circle r="85" cx="400" cy="400" stroke-width="20" stroke-dasharray="255 534" transform="rotate(203, 400, 400)" opacity="0.47"></circle><circle r="76.5" cx="400" cy="400" stroke-width="20" stroke-dasharray="204 481" transform="rotate(180, 400, 400)" opacity="0.53"></circle><circle r="68" cx="400" cy="400" stroke-width="20" stroke-dasharray="159 427" transform="rotate(158, 400, 400)" opacity="0.58"></circle><circle r="59.5" cx="400" cy="400" stroke-width="20" stroke-dasharray="119 374" transform="rotate(135, 400, 400)" opacity="0.64"></circle><circle r="51" cx="400" cy="400" stroke-width="20" stroke-dasharray="85 320" transform="rotate(113, 400, 400)" opacity="0.70"></circle><circle r="42.5" cx="400" cy="400" stroke-width="20" stroke-dasharray="57 267" transform="rotate(90, 400, 400)" opacity="0.76"></circle><circle r="34" cx="400" cy="400" stroke-width="20" stroke-dasharray="34 214" transform="rotate(68, 400, 400)" opacity="0.82"></circle><circle r="25.5" cx="400" cy="400" stroke-width="20" stroke-dasharray="17 160" transform="rotate(45, 400, 400)" opacity="0.88"></circle><circle r="17" cx="400" cy="400" stroke-width="20" stroke-dasharray="6 107" transform="rotate(23, 400, 400)" opacity="0.94"></circle><circle r="8.5" cx="400" cy="400" stroke-width="20" stroke-dasharray="0 53" opacity="1.00"></circle></g></svg>