<svg width="200" height="200" viewBox="0 0 200 200" stroke="#5a0c25" fill="none" stroke-width="2.5" stroke-linecap="round" stroke-linejoin="round"  xmlns="http://www.w3.org/2000/svg">
    <path fill="#e84f7f" stroke="none" transform="translate(-10,-2)" d="M107.713 35.857a30.03 30.03 0 0 1 6.302 1.652c-7.617 2.672-15.64 7.48-21.846 13.456-4.744 4.567-8.535 9.917-10.249 15.664-1.728 5.795-1.324 11.943 2.251 17.927 3.547 5.938 10.138 11.591 20.547 16.642 9.398 4.56 21.989 8.67 38.46 12.056-15.112 5.429-24.633 11.195-29.216 19.093-4.349 7.494-4.068 16.556-.634 28.214l-54.683-60.128c-6.256-9.453-6.407-20.182-2.603-30.248 3.828-10.128 11.646-19.509 21.116-25.962 9.477-6.459 20.45-9.883 30.555-8.366Zm26.984 17.162c-3.515-6.438-7.77-11.208-12.494-14.52a26.21 26.21 0 0 1 3.172-.29c4.544-.123 7.703 1.17 9.227 3.716 1.312 2.195 1.677 5.736.095 11.094Z"/><path d="M107.713 35.857a30.03 30.03 0 0 1 6.302 1.652c-7.617 2.672-15.64 7.48-21.846 13.456-4.744 4.567-8.535 9.917-10.249 15.664-1.728 5.795-1.324 11.943 2.251 17.927 3.547 5.938 10.138 11.591 20.547 16.642 9.398 4.56 21.989 8.67 38.46 12.056-15.112 5.429-24.633 11.195-29.216 19.093-4.349 7.494-4.068 16.556-.634 28.214l-54.683-60.128c-6.256-9.453-6.407-20.182-2.603-30.248 3.828-10.128 11.646-19.509 21.116-25.962 9.477-6.459 20.45-9.883 30.555-8.366Zm26.984 17.162c-3.515-6.438-7.77-11.208-12.494-14.52a26.21 26.21 0 0 1 3.172-.29c4.544-.123 7.703 1.17 9.227 3.716 1.312 2.195 1.677 5.736.095 11.094Z"/>
</svg>