<svg xmlns="http://www.w3.org/2000/svg" version="1.1" xmlns:xlink="http://www.w3.org/1999/xlink" xmlns:svgjs="http://svgjs.dev/svgjs" viewBox="0 0 800 800"><defs><linearGradient x1="50%" y1="0%" x2="50%" y2="100%" id="ssscribble-grad"><stop stop-color="hsl(185, 53%, 55%)" stop-opacity="1" offset="0%"></stop><stop stop-color="hsl(0, 73%, 55%)" stop-opacity="1" offset="100%"></stop></linearGradient></defs><g fill="none" stroke-width="4.25" stroke="url(#ssscribble-grad)" stroke-linecap="round"><path d="M593.61 445.95C486 473.56 380.67 446.53 313.42 383.41 271.25 338.73 245.8 317.03 218.19 364.7 190.58 477.39 166.03 579.28 172 622.78 203.06 634.12 286 608.17 393.61 580.56 467.08 552.94 492.51 528.9 486.47 481.37 455.35 401.66 440.66 277.39 468.28 164.7 495.89 117.03 560.58 161.12 627.89 241.99 670.12 341.31 667.08 418.34 593.61 445.95Q593.61 445.95 593.61 445.95" opacity="0.80"></path><path d="M583.44 399.58C487.01 424.43 389.57 400.19 322.79 348.82 274.25 317.17 242.89 307.95 218.04 354.75 193.18 454.66 179.55 548.24 195.51 594.93 229.72 619.06 307.01 607.02 403.44 582.17 472.1 557.32 503.04 524.36 506.34 467.65 487.62 388.39 479.33 274.66 504.18 174.75 529.03 127.95 582.33 157.32 633.62 221.54 662.89 305.49 652.1 374.72 583.44 399.58Q583.44 399.58 583.44 399.58" opacity="0.62"></path><path d="M573.44 353.18C488.23 375.27 399.87 356.24 335.73 317.94 284 298.52 248.89 299.72 226.8 344.75 204.71 432.05 199.81 515.91 222.6 562.73 257.78 595.09 328.23 593.92 413.44 571.83 476.59 549.73 511.04 510.9 521.92 449.59 514.49 373.82 512.68 272.05 534.78 184.75 556.87 139.72 598.68 156.43 635.06 204.8 653.14 272.05 636.59 331.09 573.44 353.18Q573.44 353.18 573.44 353.18" opacity="0.15"></path><path d="M563.44 309.85C411.91 348.5 282.74 292.77 244.09 334.75 205.43 499.09 271.91 588.9 423.44 550.25 510.17 511.59 520.09 359.09 558.75 194.75 597.4 152.77 650.17 271.19 563.44 309.85Q563.44 309.85 563.44 309.85" opacity="0.58"></path><path d="M553.44 272.41C423.58 305.54 302.18 278.11 269.05 324.75 235.91 463.31 303.58 551.97 433.44 518.84 514.9 485.7 541.77 343.31 574.91 204.75 608.04 158.11 634.9 239.27 553.44 272.41Q553.44 272.41 553.44 272.41" opacity="0.08"></path><path d="M543.44 243.31C435.8 270.92 328.05 267.08 300.44 314.75 272.82 427.47 335.8 507.27 443.44 479.66 517.01 452.04 554.84 327.47 582.46 214.75 610.07 167.08 617.01 215.69 543.44 243.31Q543.44 243.31 543.44 243.31" opacity="0.33"></path><path d="M533.44 224.45C448.23 246.54 358.82 259.72 336.73 304.75 314.63 392.07 368.23 457.37 453.44 435.28 516.6 413.18 558.95 312.07 581.05 224.75 603.14 179.72 596.6 202.35 533.44 224.45Q533.44 224.45 533.44 224.45" opacity="0.82"></path><path d="M523.43 217.08C460.56 233.64 392.69 255.97 376.12 294.78 359.56 357.59 400.56 405.19 463.43 388.63 513.8 372.06 554.16 297.59 570.72 234.78 587.29 195.97 573.8 200.51 523.43 217.08Q523.43 217.08 523.43 217.08" opacity="0.89"></path><path d="M513.44 221.66C472.42 232.7 427.75 255.7 416.71 284.75 405.66 324.61 432.42 353.68 473.44 342.64 508.88 331.59 540.96 284.61 552.01 244.75 563.05 215.7 548.88 210.61 513.44 221.66Q513.44 221.66 513.44 221.66" opacity="0.41"></path></g></svg>