<svg xmlns="http://www.w3.org/2000/svg" version="1.1" xmlns:xlink="http://www.w3.org/1999/xlink" xmlns:svgjs="http://svgjs.dev/svgjs" viewBox="0 0 800 800"><defs><linearGradient x1="50%" y1="0%" x2="50%" y2="100%" id="ssscribble-grad"><stop stop-color="hsl(206, 75%, 49%)" stop-opacity="1" offset="0%"></stop><stop stop-color="hsl(331, 90%, 56%)" stop-opacity="1" offset="100%"></stop></linearGradient></defs><g fill="none" stroke-width="2.25" stroke="url(#ssscribble-grad)" stroke-linecap="round" stroke-dasharray="2"><path d="M606.5 444.68C639.03 483.17 626.25 518.53 587.06 514.16 554.74 513.61 519.7 516.34 485.75 529.38 451.62 558.6 419.52 597.29 391.56 633.64 363.6 658.35 342.43 656.85 328.11 632.56 313.6 595.26 305.01 551.22 300.68 509.93 292.66 474.07 284.13 444.05 272.45 417.84 252.14 394.77 227.25 370.11 201.5 342.15 174.98 314.2 159.36 285.58 156.88 260.19 162.65 237.95 181.08 224.34 207.73 223.55 238.51 228.2 272.71 242.58 306.32 259.39 340.33 263.18 372.44 253.35 400.4 228.64 438.94 178.61 483.52 177.13 494.11 227.78 504.1 269.73 515.33 311.5 530.05 348.72 553.03 384.52 579.98 416.72 606.5 444.68Q606.5 444.68 606.5 444.68" opacity="0.94"></path><path d="M583.94 419.25C613.6 452.65 610.11 481.05 580.37 481.41 554.65 486.39 525.46 495.83 496.26 513.77 466.51 543.4 438.12 578.94 413.27 611.08 388.42 633.96 369.45 635.83 356.13 618.65 342.26 589.59 332.66 551.94 325.81 513.72 315.43 477.24 304.16 444.6 290.46 416.18 270.25 389.97 247.03 364.72 223.94 339.87 191.22 281.15 254.21 270.45 296.8 286.94 326.07 285.9 354.25 273.96 379.1 251.08 413.54 206.21 456.8 190.8 470.72 226.85 483.04 260.37 496.74 296.54 513.01 330.35 535.4 364.13 560.24 394.39 583.94 419.25Q583.94 419.25 583.94 419.25" opacity="0.35"></path><path d="M561.5 389.2C588.03 418.4 591.53 447.03 570.26 454.44 550.95 464.69 527.87 479.35 503.85 500.25 479.16 528.9 454.94 560.71 433.2 588.64 411.45 609.44 394.23 613.83 381.24 602.86 367.57 581.92 356.72 551.99 347.52 519.3 335.33 485.82 322.19 454.03 307.44 425.88 288.02 398.84 266.86 374.16 246.5 352.41 214.3 307.47 256.63 304.19 290.75 312.62 314.74 307.64 338.6 294.44 360.34 273.64 390.88 234.21 433.89 209.24 450.88 231.7 464.88 255.62 480.15 283.91 497.05 312 518.23 340.92 540.67 367.46 561.5 389.2Q561.5 389.2 561.5 389.2" opacity="0.35"></path><path d="M538.97 361.71C562.17 387.3 570.5 419.97 556.45 434.41 542.98 448.62 525.77 466.48 506.96 488.31 487.5 514.73 467.66 542.35 449.02 566.09 422.55 587.59 382.43 560.37 365.53 523.81 352.29 496.08 338.25 468.23 323.36 442.86 305.35 417.71 286.55 395.15 268.97 376.51 238.63 340.8 263.91 335.13 289.91 336.02 308.59 328.17 328.02 314.57 346.66 296.09 365.3 272.35 381.38 252.28 395 239.53 409.3 231.36 422.4 233.27 434.9 243.49 449.66 258.18 465.41 277.88 481.97 299.11 501.3 321.46 521.05 343.07 538.97 361.71Q538.97 361.71 538.97 361.71" opacity="0.18"></path><path d="M516.51 343.65C544.84 374.71 551.41 398.58 538.76 422.02 519.98 457.03 489.66 503.12 458.59 543.65 427.53 569.91 401.59 558.52 379.66 524.87 351.59 482.11 319.84 437.48 291.51 406.42 262.21 375.35 253.31 363.73 263.65 365.77 279.87 358.7 308.59 344.91 339.66 318.65 370.73 278.12 398.26 257.21 422.76 262.92 453.13 280.19 487.21 312.58 516.51 343.65Q516.51 343.65 516.51 343.65" opacity="0.49"></path><path d="M494.02 339.34C517.1 364.19 524.42 389.65 517.32 416.68 506.65 449.8 485.67 489 460.82 521.14 435.96 544.03 411.95 540.91 390.04 520.3 364.57 492.34 337.1 459.57 314.02 434.72 285.88 403.75 305.59 372.54 340.31 341.14 365.16 309 390.43 289.95 414.22 289.41 441.3 294.94 470.31 314.49 494.02 339.34Q494.02 339.34 494.02 339.34" opacity="0.77"></path><path d="M471.52 349.88C504.78 387.15 492.63 449.92 455.36 498.64 418.08 527.2 369.78 491.79 336.52 454.52 301.88 417.24 311.21 392.2 348.49 363.64 385.76 314.92 436.88 312.6 471.52 349.88Q471.52 349.88 471.52 349.88" opacity="0.67"></path><path d="M449.02 372.69C472.1 397.54 467.76 444 442.91 476.14 418.05 499.03 382.1 485.81 359.02 460.96 335.31 436.1 338.3 409.03 363.16 386.14 388.01 354 425.31 347.83 449.02 372.69Q449.02 372.69 449.02 372.69" opacity="0.83"></path></g></svg>