<svg xmlns="http://www.w3.org/2000/svg" version="1.1" xmlns:xlink="http://www.w3.org/1999/xlink" xmlns:svgjs="http://svgjs.dev/svgjs" viewBox="0 0 800 800"><defs><linearGradient x1="50%" y1="0%" x2="50%" y2="100%" id="ssscribble-grad"><stop stop-color="hsl(185, 53%, 55%)" stop-opacity="1" offset="0%"></stop><stop stop-color="hsl(0, 73%, 55%)" stop-opacity="1" offset="100%"></stop></linearGradient></defs><g fill="none" stroke-width="2.5" stroke="url(#ssscribble-grad)" stroke-linecap="round"><path d="M561.37 406.81C538.94 426.83 514.6 451.59 492.95 478.74 471.79 517.85 448.62 566.28 435.18 556.45 425.64 539.89 411.06 518.18 391.03 499.6 371.01 495.48 347.45 502.19 322.29 514.55 257.65 533.67 240.83 473.1 271.37 442.13 290.46 422.11 306.04 405.86 316.33 392.08 318.95 376.18 319.34 358.77 320.43 337.42 319.49 310.52 323.1 278.95 332.21 247.34 341.63 220.31 356.53 205.48 376.55 209.6 396.58 228.18 419.82 258 445.09 289.24 470.68 314.98 498.31 333.75 525.49 346.25 561.07 354.65 584.19 380.1 561.37 406.81Q561.37 406.81 561.37 406.81" opacity="0.29"></path><path d="M546.88 426.16C507.18 462.2 468.82 509.85 443.2 542.14 431.37 552.58 411.64 525.09 375.61 485.11 316.81 501.46 241.61 501.19 285.88 449.4 315.19 413.36 331.5 379.61 340.32 337.28 339.97 282 356.08 228.14 392.12 224.11 428.15 264.09 477.3 320.79 524.88 357.58 563.29 372.52 576.19 390.12 546.88 426.16Q546.88 426.16 546.88 426.16" opacity="0.61"></path><path d="M532.39 441.09C496.8 473.13 459.56 509.65 432.06 528.72 415.71 531.48 394.82 504.94 362.79 470.6 312.2 480.92 259.17 490.86 300.39 448.3 327.66 416.27 346.41 379.32 358.45 334.63 361.44 284.12 376.47 239.69 408.51 238.6 440.54 272.94 483.5 325.45 522.49 364.67 552.45 387.58 559.66 409.06 532.39 441.09Q532.39 441.09 532.39 441.09" opacity="0.96"></path><path d="M517.93 449.03C486.63 477.06 451.64 502.9 423.64 511.27 403.9 509 381.99 484.91 353.96 456.06 311.52 460.94 277.49 473.71 314.93 438.99 339.8 410.96 359.84 373.59 374.36 330.51 380.96 286.81 395.93 251.79 423.96 253.06 451.98 281.91 487.77 328.72 517.91 367.73 540.12 396.1 542.8 421 517.93 449.03Q517.93 449.03 517.93 449.03" opacity="0.76"></path><path d="M503.38 448.76C476.47 472.78 444.8 489.62 417.79 490.55 396.32 485.71 374.15 465.18 350.13 441.61 315.44 441.9 296.38 451.53 329.38 423.17 351.53 399.14 371.77 364.34 387.83 326.29 397.63 290.68 412.88 264.59 436.91 267.61 460.93 291.18 489.18 331.19 510.86 367.52 526.29 398.07 525.53 424.73 503.38 448.76Q503.38 448.76 503.38 448.76" opacity="0.76"></path><path d="M488.88 440.18C466.45 460.2 438.97 470.42 414.32 467.32 392.93 461.98 371.66 445.69 351.64 427.11 324.12 423.88 315.83 426.68 343.88 403.37 362.98 383.35 382.23 353.67 398.6 323.06 410.57 296.02 425.81 277.98 445.84 282.11 465.86 300.69 486.86 333.21 501.13 364.78 511 394.12 507.98 420.16 488.88 440.18Q488.88 440.18 488.88 440.18" opacity="0.34"></path><path d="M474.39 424.8C438.8 456.84 390.39 446.94 358.36 412.6 326.32 413.69 322.8 415.04 358.39 383 385.66 350.97 417.79 297.69 449.83 296.6 481.86 330.94 501.66 392.77 474.39 424.8Q474.39 424.8 474.39 424.8" opacity="0.30"></path><path d="M459.88 405.24C394.62 366.84 477.26 357.94 459.88 405.24Q459.88 405.24 459.88 405.24" opacity="0.13"></path><path d="M445.38 384.78C402.87 358.11 459.51 354.15 445.38 384.78Q445.38 384.78 445.38 384.78" opacity="0.82"></path></g></svg>